<svg version="1.1" id="Layer_1" xmlns="http://www.w3.org/2000/svg" xmlns:xlink="http://www.w3.org/1999/xlink" x="0px" y="0px"
	 width="100%" viewBox="0 0 400 300" enable-background="new 0 0 400 300" xml:space="preserve">
<path fill="#040217" opacity="1.000000" stroke="none" 
	d="
M286.000000,301.000000 
	C190.666687,301.000000 95.833366,301.000000 1.000038,301.000000 
	C1.000026,201.000031 1.000026,101.000069 1.000013,1.000078 
	C134.333267,1.000052 267.666534,1.000052 400.999878,1.000026 
	C400.999908,100.999916 400.999908,200.999832 400.999939,300.999878 
	C362.833344,301.000000 324.666656,301.000000 286.000000,301.000000 
M193.272781,167.446777 
	C193.351425,159.593735 193.430084,151.740677 193.645248,142.987152 
	C193.665253,139.029922 193.685257,135.072693 193.861633,130.513184 
	C193.814896,130.311096 193.768143,130.109009 193.840393,129.200195 
	C193.806870,128.486313 193.773346,127.772430 193.902039,126.204124 
	C193.616730,123.534500 193.331421,120.864883 193.089935,117.432648 
	C192.704330,116.554138 192.318741,115.675621 192.086853,113.995140 
	C191.166016,110.567307 190.245178,107.139473 189.179749,103.017151 
	C188.119934,101.000145 187.060120,98.983139 185.858124,96.290375 
	C181.089340,88.368675 175.184113,81.553032 166.613052,76.392288 
	C159.514404,73.717636 152.486588,70.822365 145.272781,68.506386 
	C143.182144,67.835205 140.558426,68.824501 137.675201,68.816200 
	C128.877823,68.256859 120.261574,68.769554 111.586540,73.223938 
	C106.955231,76.466286 102.323929,79.708633 97.107628,83.200264 
	C95.356705,85.440460 93.605782,87.680649 91.213821,90.103012 
	C89.424461,92.761391 87.635101,95.419777 85.323936,98.520584 
	C84.503883,100.692810 83.683830,102.865036 82.276115,105.467636 
	C81.888077,108.000725 81.500031,110.533821 80.952614,113.811981 
	C80.347191,115.114906 79.335251,116.376678 79.198540,117.727058 
	C77.645966,133.061844 80.402641,147.329361 90.222260,160.480606 
	C92.071556,162.516296 93.920845,164.551971 96.074905,167.121414 
	C97.366577,168.188629 98.658249,169.255844 100.293633,170.870514 
	C105.150330,173.620880 110.007019,176.371246 115.387733,179.630417 
	C118.524681,180.427124 121.661621,181.223831 125.420624,182.464554 
	C128.134705,182.697159 130.848770,182.929749 134.402283,183.019455 
	C138.347809,182.882050 142.293320,182.744644 147.085251,182.576340 
	C148.385452,182.294739 149.694534,182.048523 150.984390,181.725647 
	C158.162628,179.928711 162.211380,181.450775 166.380615,187.404938 
	C167.500763,189.004654 168.851456,190.442932 170.304123,192.488510 
	C170.868210,192.991913 171.432281,193.495331 172.301285,194.592896 
	C175.192062,197.590744 178.082840,200.588593 181.287292,204.099899 
	C183.028534,205.157333 184.769791,206.214767 186.100754,208.015030 
	C187.513611,209.548920 188.926483,211.082794 190.339371,212.616684 
	C191.198013,211.614563 192.878021,210.522537 192.779800,209.625137 
	C192.211411,204.432648 191.223663,199.286072 190.103241,193.394821 
	C191.026016,190.123627 191.948776,186.852417 193.019318,182.788177 
	C193.009720,181.089508 193.000122,179.390839 193.167099,176.893967 
	C193.134827,176.076141 193.102539,175.258301 193.180695,173.947540 
	C193.115341,172.941528 193.049973,171.935532 193.138336,170.277298 
	C193.090775,169.608826 193.043228,168.940369 193.272781,167.446777 
M208.026306,136.585022 
	C208.070221,137.448990 208.114136,138.312958 208.051102,140.086502 
	C208.058960,165.649216 208.054413,191.211960 208.108673,216.774567 
	C208.111603,218.157379 208.607269,219.539124 209.016754,221.771454 
	C208.967072,223.192978 208.917404,224.614487 208.195282,226.536560 
	C208.226135,233.355499 208.257004,240.174438 208.154510,247.855164 
	C208.139740,249.004105 207.881607,250.218201 208.167664,251.286606 
	C208.588745,252.859314 209.397964,254.328125 210.041824,255.841171 
	C211.335831,254.811508 212.953354,254.005524 213.853592,252.703583 
	C215.506882,250.312515 216.737564,247.629227 218.677948,244.664307 
	C220.605667,241.333588 222.533386,238.002853 224.647873,234.583893 
	C224.647873,234.583893 224.604645,234.381882 224.969421,234.089417 
	C225.156403,233.828461 225.244644,233.537613 225.742020,232.761200 
	C227.032562,230.518417 228.323105,228.275635 230.022217,225.576996 
	C232.725739,220.885468 235.429260,216.193939 238.688766,211.044098 
	C240.799179,207.370804 242.909592,203.697510 245.528992,199.581177 
	C247.404221,196.282181 249.279449,192.983185 251.709503,189.194550 
	C253.589890,187.208450 255.470276,185.222351 258.104523,183.256378 
	C264.996002,182.784561 271.887512,182.312744 279.581360,181.909042 
	C285.374359,179.277893 291.167358,176.646759 297.629700,173.858887 
	C311.828430,163.934464 320.391449,150.526077 322.932343,132.301056 
	C322.613708,126.524635 322.295105,120.748207 322.022217,114.170113 
	C319.590057,102.521667 314.988586,92.119339 304.854248,84.133469 
	C293.678864,72.491127 280.427582,66.469063 263.182343,68.888229 
	C252.566971,67.327171 243.550171,71.366943 234.309448,77.104332 
	C228.825912,82.739983 223.342377,88.375641 217.313232,94.379051 
	C212.238586,102.585419 208.776215,111.322418 208.279373,121.948891 
	C208.251877,124.284386 208.224396,126.619888 208.051056,129.796967 
	C208.085663,131.771225 208.120270,133.745499 208.026306,136.585022 
z"/>
<path fill="#894CF7" opacity="1.000000" stroke="none" 
	d="
M192.984619,170.929520 
	C193.049973,171.935532 193.115341,172.941528 192.853851,174.215927 
	C185.683456,180.989105 178.839905,187.493912 171.996368,193.998718 
	C171.432281,193.495331 170.868210,192.991913 170.498322,192.080002 
	C173.452957,189.236252 176.213394,186.800995 179.324341,184.546356 
	C180.142288,183.508759 181.081863,182.259857 181.004974,181.077011 
	C180.112946,167.353287 179.067413,153.639526 178.290894,139.694016 
	C184.640915,133.574051 189.079483,126.693314 191.208282,118.603058 
	C191.626221,120.699585 191.932327,122.501007 191.947388,124.304878 
	C192.061050,137.905350 192.087387,151.506607 192.225647,165.106750 
	C192.245407,167.050049 192.720337,168.988708 192.984619,170.929520 
z"/>
<path fill="#4D7EFD" opacity="1.000000" stroke="none" 
	d="
M322.724152,133.266083 
	C320.391449,150.526077 311.828430,163.934464 296.988525,173.712128 
	C288.627991,172.990875 281.990692,169.777588 276.273682,165.056412 
	C285.430054,162.316223 292.513977,157.196045 298.671295,150.114807 
	C300.802002,149.158142 302.673889,148.412201 304.240936,147.253845 
	C310.453796,142.661301 316.571289,137.939789 322.724152,133.266083 
z"/>
<path fill="#DFB37B" opacity="1.000000" stroke="none" 
	d="
M208.873566,220.921371 
	C208.607269,219.539124 208.111603,218.157379 208.108673,216.774567 
	C208.054413,191.211960 208.058960,165.649216 208.423843,139.686325 
	C213.822083,143.305527 218.847565,147.324921 223.904480,151.717575 
	C223.700394,154.391754 223.464905,156.692673 222.877960,159.132568 
	C221.122665,161.089447 218.864838,162.738892 218.467117,164.755249 
	C216.976425,172.312424 216.027420,179.980667 215.003098,187.624390 
	C214.129593,194.142609 213.693161,200.729858 212.567719,207.200363 
	C211.759384,211.847610 210.134293,216.352798 208.873566,220.921371 
z"/>
<path fill="#00D5CF" opacity="1.000000" stroke="none" 
	d="
M264.000916,69.044113 
	C280.427582,66.469063 293.678864,72.491127 304.815186,84.747177 
	C301.479553,90.436852 296.685913,92.796867 290.432556,92.985222 
	C285.072235,90.468788 280.032593,88.057632 274.857422,85.355896 
	C271.148193,79.724899 267.574554,74.384506 264.000916,69.044113 
z"/>
<path fill="#00CED9" opacity="1.000000" stroke="none" 
	d="
M290.753235,93.090500 
	C296.685913,92.796867 301.479553,90.436852 304.947510,85.052032 
	C314.988586,92.119339 319.590057,102.521667 321.660278,114.644226 
	C316.306213,117.740974 311.314087,120.363625 306.225281,122.579407 
	C305.213562,110.252708 299.485870,100.877266 290.753235,93.090500 
z"/>
<path fill="#CA30FC" opacity="1.000000" stroke="none" 
	d="
M178.973816,184.365738 
	C176.213394,186.800995 173.452957,189.236252 170.394409,191.813416 
	C168.851456,190.442932 167.500763,189.004654 166.380615,187.404938 
	C162.211380,181.450775 158.162628,179.928711 150.984390,181.725647 
	C149.694534,182.048523 148.385452,182.294739 146.482056,182.261749 
	C142.565796,176.665955 139.252747,171.384750 136.384521,166.044708 
	C141.433762,165.301758 146.038193,164.617645 150.910797,164.176086 
	C155.243286,170.659973 161.057999,172.498810 166.248245,169.265991 
	C170.679199,174.413605 174.826508,179.389664 178.973816,184.365738 
z"/>
<path fill="#00CED9" opacity="1.000000" stroke="none" 
	d="
M263.591614,68.966171 
	C267.574554,74.384506 271.148193,79.724899 274.445587,85.324188 
	C261.532776,83.125961 250.195404,86.081810 239.991150,93.394585 
	C238.313644,87.649750 236.642349,82.294960 234.971039,76.940170 
	C243.550171,71.366943 252.566971,67.327171 263.591614,68.966171 
z"/>
<path fill="#CCD24E" opacity="1.000000" stroke="none" 
	d="
M208.945160,221.346405 
	C210.134293,216.352798 211.759384,211.847610 212.567719,207.200363 
	C213.693161,200.729858 214.129593,194.142609 215.003098,187.624390 
	C216.027420,179.980667 216.976425,172.312424 218.467117,164.755249 
	C218.864838,162.738892 221.122665,161.089447 222.932281,159.596924 
	C222.945770,165.218033 222.553482,170.513748 221.885498,176.056122 
	C220.765839,178.215836 219.286880,180.098358 219.193222,182.047455 
	C218.871475,188.742310 219.104599,195.461639 218.992188,202.169388 
	C218.893417,208.061874 215.927963,213.438766 218.503433,220.021484 
	C220.191132,224.335159 220.869308,226.630661 225.637543,225.968735 
	C226.934937,225.788620 228.286789,226.000732 229.613647,226.032852 
	C228.323105,228.275635 227.032562,230.518417 225.291718,233.119690 
	C224.625870,233.743500 224.546951,234.044724 224.604645,234.381882 
	C224.604645,234.381882 224.647873,234.583893 224.106461,234.451080 
	C221.107895,234.041138 218.609940,233.955734 216.202789,233.443573 
	C212.223969,232.597000 209.129974,230.662766 208.867722,226.036011 
	C208.917404,224.614487 208.967072,223.192978 208.945160,221.346405 
z"/>
<path fill="#FB81BB" opacity="1.000000" stroke="none" 
	d="
M90.029930,159.805542 
	C80.402641,147.329361 77.645966,133.061844 79.198540,117.727058 
	C79.335251,116.376678 80.347191,115.114906 81.364502,113.483673 
	C86.334045,116.872314 90.891708,120.589256 95.469299,124.694611 
	C95.454895,125.869698 95.420555,126.656372 95.361786,127.428787 
	C95.337372,127.414543 95.433128,127.373169 95.260681,127.795509 
	C95.027306,129.708344 94.966377,131.198837 94.667915,133.001801 
	C93.259880,140.725800 92.100365,148.139084 90.909332,155.547287 
	C90.679489,156.976883 90.326248,158.386642 90.029930,159.805542 
z"/>
<path fill="#C4D906" opacity="1.000000" stroke="none" 
	d="
M229.817932,225.804932 
	C228.286789,226.000732 226.934937,225.788620 225.637543,225.968735 
	C220.869308,226.630661 220.191132,224.335159 218.503433,220.021484 
	C215.927963,213.438766 218.893417,208.061874 218.992188,202.169388 
	C219.104599,195.461639 218.871475,188.742310 219.193222,182.047455 
	C219.286880,180.098358 220.765839,178.215836 221.948776,176.421722 
	C221.605469,188.784256 220.923187,201.027847 220.240906,213.271423 
	C220.873367,213.425110 221.505844,213.578781 222.138306,213.732468 
	C227.036270,205.383865 231.934235,197.035263 236.868866,189.148514 
	C237.066803,195.636780 237.191864,201.664566 237.418442,207.688522 
	C237.466537,208.966980 237.884979,210.231491 238.132797,211.502426 
	C235.429260,216.193939 232.725739,220.885468 229.817932,225.804932 
z"/>
<path fill="#00CED9" opacity="1.000000" stroke="none" 
	d="
M167.020599,76.935280 
	C175.184113,81.553032 181.089340,88.368675 185.647415,96.807663 
	C181.110291,100.618118 176.783890,103.911285 172.262115,106.948975 
	C167.628265,98.415260 161.039673,92.373322 153.123322,88.027710 
	C159.618362,86.246841 165.813980,84.653152 167.020599,76.935280 
z"/>
<path fill="#00CED9" opacity="1.000000" stroke="none" 
	d="
M112.291260,73.105164 
	C120.261574,68.769554 128.877823,68.256859 137.676056,68.952538 
	C137.561325,70.377472 136.846329,72.134560 137.427704,72.878426 
	C141.123871,77.607506 145.106171,82.112968 148.608673,86.628540 
	C137.872269,83.578552 127.797661,84.320679 117.974686,88.441345 
	C116.063118,83.087105 114.177193,78.096138 112.291260,73.105164 
z"/>
<path fill="#00D5CF" opacity="1.000000" stroke="none" 
	d="
M234.640244,77.022247 
	C236.642349,82.294960 238.313644,87.649750 239.772369,93.658951 
	C235.887253,99.308784 232.262283,104.340454 228.506302,109.272324 
	C227.646927,110.400742 226.335968,111.185226 225.149902,111.756805 
	C222.664246,105.594154 220.261536,99.802719 217.858826,94.011292 
	C223.342377,88.375641 228.825912,82.739983 234.640244,77.022247 
z"/>
<path fill="#00D5CF" opacity="1.000000" stroke="none" 
	d="
M148.994171,86.692123 
	C145.106171,82.112968 141.123871,77.607506 137.427704,72.878426 
	C136.846329,72.134560 137.561325,70.377472 137.927994,69.070732 
	C140.558426,68.824501 143.182144,67.835205 145.272781,68.506386 
	C152.486588,70.822365 159.514404,73.717636 166.816833,76.663788 
	C165.813980,84.653152 159.618362,86.246841 152.919159,87.997665 
	C152.331314,88.051361 151.992249,87.815941 151.928711,87.576843 
	C151.247910,87.209763 150.630630,87.081772 149.743332,86.947708 
	C149.313583,86.858452 149.153885,86.775284 148.994171,86.692123 
z"/>
<path fill="#00B0E6" opacity="1.000000" stroke="none" 
	d="
M306.321991,122.986267 
	C311.314087,120.363625 316.306213,117.740974 321.637390,115.045059 
	C322.295105,120.748207 322.613708,126.524635 322.828247,132.783569 
	C316.571289,137.939789 310.453796,142.661301 304.240936,147.253845 
	C302.673889,148.412201 300.802002,149.158142 298.863281,149.761124 
	C304.256531,141.497223 306.514465,132.596939 306.321991,122.986267 
z"/>
<path fill="#B18AFE" opacity="1.000000" stroke="none" 
	d="
M278.778992,181.840912 
	C271.887512,182.312744 264.996002,182.784561 257.442383,183.009796 
	C254.836334,178.113785 250.569412,176.199249 246.227051,173.844040 
	C245.736679,173.548752 245.529663,173.449356 245.441772,173.113602 
	C246.868256,171.093018 248.095001,169.242447 249.498535,167.537399 
	C253.258530,162.969543 257.896698,166.461670 262.451904,166.451569 
	C267.302032,166.437592 269.553131,168.695648 270.213593,173.108383 
	C270.943024,177.981705 273.643005,181.168091 278.778992,181.840912 
z"/>
<path fill="#6ED895" opacity="1.000000" stroke="none" 
	d="
M217.586029,94.195168 
	C220.261536,99.802719 222.664246,105.594154 225.344559,112.100281 
	C225.364868,115.890968 225.107559,118.966972 224.396698,122.036354 
	C218.800278,121.724113 213.657425,121.418480 208.514587,121.112854 
	C208.776215,111.322418 212.238586,102.585419 217.586029,94.195168 
z"/>
<path fill="#00D5CF" opacity="1.000000" stroke="none" 
	d="
M111.938904,73.164551 
	C114.177193,78.096138 116.063118,83.087105 117.685730,88.636505 
	C113.042915,92.741302 108.663406,96.287659 104.156601,99.503517 
	C101.917084,93.765671 99.804848,88.358330 97.692619,82.950981 
	C102.323929,79.708633 106.955231,76.466286 111.938904,73.164551 
z"/>
<path fill="#C4D906" opacity="1.000000" stroke="none" 
	d="
M114.863708,179.121628 
	C110.007019,176.371246 105.150330,173.620880 100.201660,170.189896 
	C100.174660,167.400436 100.368820,165.286026 100.278389,163.183868 
	C100.073936,158.431229 98.945557,153.515610 103.488617,149.933945 
	C107.192375,153.408890 110.610870,156.697189 114.031380,160.428207 
	C114.310165,166.954498 114.586937,173.038055 114.863708,179.121628 
z"/>
<path fill="#6ED895" opacity="1.000000" stroke="none" 
	d="
M97.400124,83.075623 
	C99.804848,88.358330 101.917084,93.765671 104.002548,99.848740 
	C102.053932,103.806114 100.132072,107.087784 97.928093,110.104538 
	C92.718575,108.238838 87.791176,106.638046 82.863785,105.037262 
	C83.683830,102.865036 84.503883,100.692810 85.990929,98.316528 
	C91.871101,97.140213 92.942284,95.451775 91.854858,89.920837 
	C93.605782,87.680649 95.356705,85.440460 97.400124,83.075623 
z"/>
<path fill="#4D7EFD" opacity="1.000000" stroke="none" 
	d="
M190.961685,118.309082 
	C189.079483,126.693314 184.640915,133.574051 178.188110,139.289856 
	C177.399826,133.115845 176.942627,127.116875 176.789917,121.014359 
	C182.426025,116.070137 186.907944,110.625259 189.324341,103.711639 
	C190.245178,107.139473 191.166016,110.567307 191.776382,114.690231 
	C191.297836,116.359917 191.129761,117.334496 190.961685,118.309082 
z"/>
<path fill="#894CF7" opacity="1.000000" stroke="none" 
	d="
M279.180176,181.874985 
	C273.643005,181.168091 270.943024,177.981705 270.213593,173.108383 
	C269.553131,168.695648 267.302032,166.437592 262.887634,166.389679 
	C267.310944,165.816956 271.614288,165.502625 275.917633,165.188293 
	C281.990692,169.777588 288.627991,172.990875 296.653839,173.790482 
	C291.167358,176.646759 285.374359,179.277893 279.180176,181.874985 
z"/>
<path fill="#00B0E6" opacity="1.000000" stroke="none" 
	d="
M189.252045,103.364395 
	C186.907944,110.625259 182.426025,116.070137 176.657364,120.605576 
	C174.966034,115.935043 173.711746,111.569748 172.457474,107.204453 
	C176.783890,103.911285 181.110291,100.618118 185.718506,97.145538 
	C187.060120,98.983139 188.119934,101.000145 189.252045,103.364395 
z"/>
<path fill="#6ED895" opacity="1.000000" stroke="none" 
	d="
M208.531494,226.286285 
	C209.129974,230.662766 212.223969,232.597000 216.202789,233.443573 
	C218.609940,233.955734 221.107895,234.041138 224.013077,234.495193 
	C222.533386,238.002853 220.605667,241.333588 218.018005,244.843781 
	C214.334671,245.679962 211.311279,246.336670 208.287872,246.993378 
	C208.257004,240.174438 208.226135,233.355499 208.531494,226.286285 
z"/>
<path fill="#FB81BB" opacity="1.000000" stroke="none" 
	d="
M135.939697,166.103531 
	C139.252747,171.384750 142.565796,176.665955 146.058838,182.277191 
	C142.293320,182.744644 138.347809,182.882050 133.803894,182.806702 
	C130.535934,177.332718 126.755157,172.377670 129.081177,165.875031 
	C131.689316,165.952530 133.814514,166.028030 135.939697,166.103531 
z"/>
<path fill="#DFB37B" opacity="1.000000" stroke="none" 
	d="
M128.598221,165.873032 
	C126.755157,172.377670 130.535934,177.332718 133.384171,182.878143 
	C130.848770,182.929749 128.134705,182.697159 125.077850,181.898178 
	C121.195709,175.662552 118.421814,169.758850 119.439880,162.864410 
	C122.744713,163.903900 125.671463,164.888474 128.598221,165.873032 
z"/>
<path fill="#36D5D7" opacity="1.000000" stroke="none" 
	d="
M208.396973,121.530869 
	C213.657425,121.418480 218.800278,121.724113 224.457611,122.492188 
	C224.931824,127.006996 224.891556,131.059372 224.492889,135.079071 
	C218.821976,133.016068 213.509445,130.985733 208.196915,128.955383 
	C208.224396,126.619888 208.251877,124.284386 208.396973,121.530869 
z"/>
<path fill="#DFB37B" opacity="1.000000" stroke="none" 
	d="
M90.126099,160.143066 
	C90.326248,158.386642 90.679489,156.976883 90.909332,155.547287 
	C92.100365,148.139084 93.259880,140.725800 94.850426,133.357452 
	C96.550888,136.538605 97.831291,139.676559 99.028458,143.195801 
	C97.886856,151.247269 96.828499,158.917465 95.770142,166.587646 
	C93.920845,164.551971 92.071556,162.516296 90.126099,160.143066 
z"/>
<path fill="#00B0E6" opacity="1.000000" stroke="none" 
	d="
M172.148819,194.295807 
	C178.839905,187.493912 185.683456,180.989105 192.798630,174.462402 
	C193.102539,175.258301 193.134827,176.076141 192.751221,177.442520 
	C190.102066,181.228561 187.659897,184.350082 185.760223,187.772720 
	C185.174713,188.827591 186.069489,190.704102 186.194504,192.550003 
	C184.392899,196.459229 182.683273,200.022827 180.973633,203.586426 
	C178.082840,200.588593 175.192062,197.590744 172.148819,194.295807 
z"/>
<path fill="#36D5D7" opacity="1.000000" stroke="none" 
	d="
M82.569946,105.252449 
	C87.791176,106.638046 92.718575,108.238838 97.877312,110.457474 
	C97.664261,112.433868 97.219879,113.792427 96.385872,115.110703 
	C93.847786,114.869194 91.699318,114.667961 89.550858,114.466728 
	C89.320221,115.012878 89.089592,115.559036 88.858955,116.105186 
	C91.175697,117.442322 93.492432,118.779457 95.839745,120.534180 
	C95.730003,122.069916 95.589691,123.188057 95.449371,124.306198 
	C90.891708,120.589256 86.334045,116.872314 81.444183,113.111145 
	C81.500031,110.533821 81.888077,108.000725 82.569946,105.252449 
z"/>
<path fill="#DFB37B" opacity="1.000000" stroke="none" 
	d="
M245.322662,173.349976 
	C245.529663,173.449356 245.736679,173.548752 246.141876,174.191620 
	C247.944931,179.718140 249.549805,184.701172 251.154663,189.684204 
	C249.279449,192.983185 247.404221,196.282181 245.039612,199.479858 
	C243.293350,194.097321 242.036469,188.816101 240.831329,183.174286 
	C242.362930,179.659119 243.842804,176.504547 245.322662,173.349976 
z"/>
<path fill="#CCD24E" opacity="1.000000" stroke="none" 
	d="
M240.779602,183.534866 
	C242.036469,188.816101 243.293350,194.097321 244.785126,199.701385 
	C242.909592,203.697510 240.799179,207.370804 238.410782,211.273254 
	C237.884979,210.231491 237.466537,208.966980 237.418442,207.688522 
	C237.191864,201.664566 237.066803,195.636780 236.931351,188.817749 
	C238.231323,186.528381 239.505463,185.031616 240.779602,183.534866 
z"/>
<path fill="#CCD24E" opacity="1.000000" stroke="none" 
	d="
M119.061813,162.809479 
	C118.421814,169.758850 121.195709,175.662552 124.766823,181.676178 
	C121.661621,181.223831 118.524681,180.427124 115.125717,179.376022 
	C114.586937,173.038055 114.310165,166.954498 114.347542,160.505005 
	C116.128395,161.029221 117.595100,161.919357 119.061813,162.809479 
z"/>
<path fill="#CCD24E" opacity="1.000000" stroke="none" 
	d="
M95.922523,166.854523 
	C96.828499,158.917465 97.886856,151.247269 99.279144,143.422821 
	C100.809837,145.428146 102.006592,147.587723 103.203346,149.747299 
	C98.945557,153.515610 100.073936,158.431229 100.278389,163.183868 
	C100.368820,165.286026 100.174660,167.400436 100.029808,169.916168 
	C98.658249,169.255844 97.366577,168.188629 95.922523,166.854523 
z"/>
<path fill="#6ED895" opacity="1.000000" stroke="none" 
	d="
M181.130463,203.843170 
	C182.683273,200.022827 184.392899,196.459229 186.446228,192.325897 
	C188.817139,189.031189 190.844345,186.306198 192.871552,183.581207 
	C191.948776,186.852417 191.026016,190.123627 190.047348,194.078461 
	C188.831314,198.932129 187.671173,203.102158 186.511032,207.272202 
	C184.769791,206.214767 183.028534,205.157333 181.130463,203.843170 
z"/>
<path fill="#00CED9" opacity="1.000000" stroke="none" 
	d="
M208.123993,129.376175 
	C213.509445,130.985733 218.821976,133.016068 224.546722,135.392822 
	C224.891571,136.158615 224.824219,136.577988 224.446686,137.116455 
	C222.345352,137.517120 220.552429,138.032486 218.763489,138.019058 
	C216.690140,138.003525 214.620270,137.523346 212.408875,137.257202 
	C212.268875,137.269547 212.005539,137.171173 211.943375,136.847351 
	C210.856003,136.290207 209.830795,136.056915 208.642761,135.798630 
	C208.479919,135.773636 208.154877,135.719757 208.154877,135.719757 
	C208.120270,133.745499 208.085663,131.771225 208.123993,129.376175 
z"/>
<path fill="#B18AFE" opacity="1.000000" stroke="none" 
	d="
M186.305893,207.643616 
	C187.671173,203.102158 188.831314,198.932129 190.184662,194.443024 
	C191.223663,199.286072 192.211411,204.432648 192.779800,209.625137 
	C192.878021,210.522537 191.198013,211.614563 190.339355,212.616669 
	C188.926483,211.082794 187.513611,209.548920 186.305893,207.643616 
z"/>
<path fill="#6ED895" opacity="1.000000" stroke="none" 
	d="
M212.005539,137.171173 
	C212.005539,137.171173 212.268875,137.269547 212.535645,137.602905 
	C214.220917,138.969711 215.553116,140.159866 217.078217,140.999710 
	C219.342743,142.246750 221.743790,143.245834 224.158020,144.772125 
	C224.110565,147.243973 223.991806,149.294128 223.873062,151.344299 
	C218.847565,147.324921 213.822083,143.305527 208.477325,139.231537 
	C208.114136,138.312958 208.070221,137.448990 208.090591,136.152390 
	C208.154877,135.719757 208.479919,135.773636 208.913208,136.037506 
	C210.232849,136.591309 211.119186,136.881241 212.005539,137.171173 
z"/>
<path fill="#B18AFE" opacity="1.000000" stroke="none" 
	d="
M191.208282,118.603058 
	C191.129761,117.334496 191.297836,116.359917 191.699524,115.091217 
	C192.318741,115.675621 192.704330,116.554138 192.999527,118.219162 
	C193.186035,121.689964 193.462936,124.374260 193.739838,127.058548 
	C193.773346,127.772430 193.806870,128.486313 193.645813,129.679077 
	C193.413864,130.274536 193.316208,130.414917 193.350998,130.502960 
	C193.436691,130.719925 193.583206,130.912857 193.705261,131.115463 
	C193.685257,135.072693 193.665253,139.029922 193.352203,143.802399 
	C193.037979,152.502411 193.016830,160.387146 192.995682,168.271896 
	C193.043228,168.940369 193.090775,169.608826 193.061478,170.603409 
	C192.720337,168.988708 192.245407,167.050049 192.225647,165.106750 
	C192.087387,151.506607 192.061050,137.905350 191.947388,124.304878 
	C191.932327,122.501007 191.626221,120.699585 191.208282,118.603058 
z"/>
<path fill="#00D5CF" opacity="1.000000" stroke="none" 
	d="
M208.221191,247.424271 
	C211.311279,246.336670 214.334671,245.679962 217.751251,245.045502 
	C216.737564,247.629227 215.506882,250.312515 213.853592,252.703583 
	C212.953354,254.005524 211.335831,254.811508 210.041840,255.841187 
	C209.397964,254.328125 208.588745,252.859314 208.167664,251.286606 
	C207.881607,250.218201 208.139740,249.004105 208.221191,247.424271 
z"/>
<path fill="#FB81BB" opacity="1.000000" stroke="none" 
	d="
M251.432098,189.439377 
	C249.549805,184.701172 247.944931,179.718140 246.425232,174.387512 
	C250.569412,176.199249 254.836334,178.113785 257.065460,182.999725 
	C255.470276,185.222351 253.589890,187.208450 251.432098,189.439377 
z"/>
<path fill="#00D5CF" opacity="1.000000" stroke="none" 
	d="
M192.945435,183.184692 
	C190.844345,186.306198 188.817139,189.031189 186.538208,191.980286 
	C186.069489,190.704102 185.174713,188.827591 185.760223,187.772720 
	C187.659897,184.350082 190.102066,181.228561 192.662933,177.841614 
	C193.000122,179.390839 193.009720,181.089508 192.945435,183.184692 
z"/>
<path fill="#CCD24E" opacity="1.000000" stroke="none" 
	d="
M91.534340,90.011925 
	C92.942284,95.451775 91.871101,97.140213 86.251831,98.095314 
	C87.635101,95.419777 89.424461,92.761391 91.534340,90.011925 
z"/>
<path fill="#894CF7" opacity="1.000000" stroke="none" 
	d="
M193.134232,167.859344 
	C193.016830,160.387146 193.037979,152.502411 193.283936,144.252655 
	C193.430084,151.740677 193.351425,159.593735 193.134232,167.859344 
z"/>
<path fill="#894CF7" opacity="1.000000" stroke="none" 
	d="
M193.820938,126.631332 
	C193.462936,124.374260 193.186035,121.689964 192.977631,118.600464 
	C193.331421,120.864883 193.616730,123.534500 193.820938,126.631332 
z"/>
<path fill="#894CF7" opacity="1.000000" stroke="none" 
	d="
M193.783447,130.814331 
	C193.583206,130.912857 193.436691,130.719925 193.350998,130.502960 
	C193.316208,130.414917 193.413864,130.274536 193.586334,130.032455 
	C193.768143,130.109009 193.814896,130.311096 193.783447,130.814331 
z"/>
<path fill="#6ED895" opacity="1.000000" stroke="none" 
	d="
M224.787033,234.235657 
	C224.546951,234.044724 224.625870,233.743500 225.037781,233.347534 
	C225.244644,233.537613 225.156403,233.828461 224.787033,234.235657 
z"/>
<path fill="#040217" opacity="1.000000" stroke="none" 
	d="
M103.488617,149.933945 
	C102.006592,147.587723 100.809837,145.428146 99.362389,143.041550 
	C97.831291,139.676559 96.550888,136.538605 95.087967,133.044983 
	C94.966377,131.198837 95.027306,129.708344 95.270805,127.842819 
	C95.453384,127.467781 95.386208,127.443039 95.386208,127.443039 
	C95.420555,126.656372 95.454895,125.869698 95.469307,124.694611 
	C95.589691,123.188057 95.730003,122.069916 95.940918,120.176605 
	C96.266174,117.984619 96.520836,116.567802 96.775497,115.150978 
	C97.219879,113.792427 97.664261,112.433868 98.159431,110.722382 
	C100.132072,107.087784 102.053932,103.806114 104.129845,100.179230 
	C108.663406,96.287659 113.042915,92.741302 117.711380,88.999771 
	C127.797661,84.320679 137.872269,83.578552 148.608673,86.628540 
	C149.153885,86.775284 149.313583,86.858452 149.968231,87.107216 
	C150.972870,87.453850 151.482559,87.634895 151.992249,87.815941 
	C151.992249,87.815941 152.331314,88.051361 152.535477,88.081406 
	C161.039673,92.373322 167.628265,98.415260 172.262115,106.948975 
	C173.711746,111.569748 174.966034,115.935043 176.352875,120.709122 
	C176.942627,127.116875 177.399826,133.115845 177.959793,139.518967 
	C179.067413,153.639526 180.112946,167.353287 181.004974,181.077011 
	C181.081863,182.259857 180.142288,183.508759 179.324341,184.546356 
	C174.826508,179.389664 170.679199,174.413605 166.143768,168.935623 
	C159.817322,161.491684 157.360886,160.760239 150.642609,163.933533 
	C146.038193,164.617645 141.433762,165.301758 136.384521,166.044708 
	C133.814514,166.028030 131.689316,165.952530 129.081177,165.875031 
	C125.671463,164.888474 122.744713,163.903900 119.439880,162.864410 
	C117.595100,161.919357 116.128395,161.029221 114.345528,160.062286 
	C110.610870,156.697189 107.192375,153.408890 103.488617,149.933945 
z"/>
<path fill="#040317" opacity="1.000000" stroke="none" 
	d="
M223.904480,151.717575 
	C223.991806,149.294128 224.110565,147.243973 224.280396,144.378311 
	C224.473282,141.374344 224.615082,139.185852 224.756866,136.997375 
	C224.824219,136.577988 224.891571,136.158615 224.905106,135.425476 
	C224.891556,131.059372 224.931824,127.006996 224.911179,122.498795 
	C225.107559,118.966972 225.364868,115.890968 225.427521,112.471497 
	C226.335968,111.185226 227.646927,110.400742 228.506302,109.272324 
	C232.262283,104.340454 235.887253,99.308784 239.778564,94.048981 
	C250.195404,86.081810 261.532776,83.125961 274.581116,85.614777 
	C280.032593,88.057632 285.072235,90.468788 290.432556,92.985222 
	C299.485870,100.877266 305.213562,110.252708 306.225281,122.579407 
	C306.514465,132.596939 304.256531,141.497223 298.464417,149.782318 
	C292.513977,157.196045 285.430054,162.316223 276.273682,165.056412 
	C271.614288,165.502625 267.310944,165.816956 262.571869,166.193176 
	C257.896698,166.461670 253.258530,162.969543 249.498535,167.537399 
	C248.095001,169.242447 246.868256,171.093018 245.441772,173.113602 
	C243.842804,176.504547 242.362930,179.659119 240.831329,183.174286 
	C239.505463,185.031616 238.231323,186.528381 236.894684,188.355896 
	C231.934235,197.035263 227.036270,205.383865 222.138306,213.732468 
	C221.505844,213.578781 220.873367,213.425110 220.240906,213.271423 
	C220.923187,201.027847 221.605469,188.784256 222.224487,176.175079 
	C222.553482,170.513748 222.945770,165.218033 223.283737,159.457947 
	C223.464905,156.692673 223.700394,154.391754 223.904480,151.717575 
z"/>
<path fill="#894CF7" opacity="1.000000" stroke="none" 
	d="
M150.910797,164.176086 
	C157.360886,160.760239 159.817322,161.491684 165.860123,168.764069 
	C161.057999,172.498810 155.243286,170.659973 150.910797,164.176086 
z"/>
<path fill="#36D5D7" opacity="1.000000" stroke="none" 
	d="
M95.361786,127.428787 
	C95.386208,127.443039 95.453384,127.467781 95.443253,127.420471 
	C95.433128,127.373169 95.337372,127.414543 95.361786,127.428787 
z"/>
<path fill="#00CED9" opacity="1.000000" stroke="none" 
	d="
M151.928711,87.576843 
	C151.482559,87.634895 150.972870,87.453850 150.238281,87.113297 
	C150.630630,87.081772 151.247910,87.209763 151.928711,87.576843 
z"/>
<path fill="#00CED9" opacity="1.000000" stroke="none" 
	d="
M96.385872,115.110703 
	C96.520836,116.567802 96.266174,117.984619 95.910339,119.759018 
	C93.492432,118.779457 91.175697,117.442322 88.858955,116.105186 
	C89.089592,115.559036 89.320221,115.012878 89.550858,114.466728 
	C91.699318,114.667961 93.847786,114.869194 96.385872,115.110703 
z"/>
<path fill="#36D5D7" opacity="1.000000" stroke="none" 
	d="
M224.446686,137.116455 
	C224.615082,139.185852 224.473282,141.374344 224.209106,143.956635 
	C221.743790,143.245834 219.342743,142.246750 217.078217,140.999710 
	C215.553116,140.159866 214.220917,138.969711 212.675659,137.590561 
	C214.620270,137.523346 216.690140,138.003525 218.763489,138.019058 
	C220.552429,138.032486 222.345352,137.517120 224.446686,137.116455 
z"/>
<path fill="#36D5D7" opacity="1.000000" stroke="none" 
	d="
M211.943375,136.847351 
	C211.119186,136.881241 210.232849,136.591309 209.076050,136.062500 
	C209.830795,136.056915 210.856003,136.290207 211.943375,136.847351 
z"/>
</svg>